# xmcd CD database file
#
# Track frame offsets:
#	183
#	2903
#	16490
#	28713
#	43758
#	57488
#	69038
#	81173
#	95913
#	107193
#	123893
#	136968
#	147818
#	158178
#
# Disc length: 2153 seconds
#
# Revision: 0
# Processed by: cddbd v1.4PL0 Copyright (c) Steve Scherf et al.
# Submitted via: CDex 1.50Beta7
#
DISCID=bc08670e
DTITLE=Golden Gate Quartett - The Number One
DYEAR=1900
DGENRE=Jazz
TTITLE0=Prologue - Nobody Knows The Trouble I've Seen
TTITLE1=Free at last
TTITLE2=Swing Low Sweet Chariot
TTITLE3=Wade in the water
TTITLE4=Amen
TTITLE5=Shadrack
TTITLE6=Samson
TTITLE7=Nobody knows the trouble I've seen
TTITLE8=Jericho
TTITLE9=Heaven!
TTITLE10=Sometimes I feel like a motherless child
TTITLE11=Kansas City
TTITLE12=Go where I send thee
TTITLE13=Epilogue - Sometimes I feel like a motherless child
EXTD=
EXTT0=
EXTT1=
EXTT2=
EXTT3=
EXTT4=
EXTT5=
EXTT6=
EXTT7=
EXTT8=
EXTT9=
EXTT10=
EXTT11=
EXTT12=
EXTT13=
PLAYORDER=
